<svg data-name="Layer 1" xmlns="http://www.w3.org/2000/svg" xmlns:xlink="http://www.w3.org/1999/xlink" viewBox="0 0 158.81 130.19" class="illustration styles_illustrationTablet__1DWOa"><defs><linearGradient id="a" x1="83.01" y1="54.9" x2="42.02" y2="60.46" gradientTransform="matrix(1 0 0 -1 -18.57 131.42)" gradientUnits="userSpaceOnUse"><stop offset=".01"/><stop offset=".08" stop-opacity=".69"/><stop offset=".21" stop-opacity=".32"/><stop offset="1" stop-opacity="0"/></linearGradient><linearGradient id="b" x1="-547.98" y1="61.6" x2="-499.46" y2="27.21" gradientTransform="rotate(180 -235.545 61.97)" xlink:href="#a"/><linearGradient id="c" x1="84.42" y1="69.76" x2="76.09" y2="16.29" gradientTransform="matrix(1 0 0 -1 -7.29 140.53)" xlink:href="#a"/><linearGradient id="d" x1="90.92" y1="61.65" x2="82.6" y2="8.18" gradientTransform="matrix(1 0 0 -1 -7.29 140.53)" xlink:href="#a"/><linearGradient id="e" x1="91.34" y1="69.04" x2="81.27" y2="4.4" gradientTransform="matrix(1 0 0 -1 -7.29 140.53)" xlink:href="#a"/><linearGradient id="f" x1="147.04" y1="88.11" x2="105.55" y2="13.31" xlink:href="#a"/></defs><path d="M30.1 126.07c13.07 6.39 30 3.93 43.88 2 11-1.57 18.9-4 30-2.73a97.49 97.49 0 0035-2.38c4.79-1.21 9.59-2.86 13.45-5.94s6.67-7.84 6.33-12.77c-.47-6.71-6.21-11.61-10-17.13-11.23-16.19-6.16-38.61-13-57.07a46.18 46.18 0 00-63.6-25.41c-15 7.32-25.11 20.44-39.45 28.8-7.76 4.52-16.28 8.09-22.51 14.58C3.31 55.16-.05 65.28 0 75.2s3.27 19.65 8.11 28.33 11.44 16.56 20 21.52c.68.35 1.33.69 1.99 1.02z" fill="#4FD1C5" opacity=".18" style="isolation:isolate"/><path d="M26.4 107.37c-2.39.34-5.54 2.1-4.44 4.26a3.89 3.89 0 002.75 1.61 130.3 130.3 0 0017.2 3.12c10.5 1.19 21.1 1.11 31.66 1l30.71-.26c12-.1 24.17-.21 36.06-2.16-1-5-6.9-7.1-11.95-7.65-12.5-1.38-25.28 1.06-37.6-1.41-6.3-1.27-12.51-3.82-18.93-3.31-6.9.54-11.71 4.19-18.72 3.56-8.84-.79-18-.03-26.74 1.24z" fill="#4FD1C5" opacity=".18" style="isolation:isolate"/><path d="M41.16 109.4a4.36 4.36 0 00.35 1.83 3 3 0 001.33 1.24 5.24 5.24 0 003.9.39.74.74 0 00.45-.28.56.56 0 00.08-.38 2.93 2.93 0 00-1-1.84 6.13 6.13 0 01-1.4-1.61c-.6-1.21-.16-4.42-2.43-3.9-1.92.43-1.33 3.2-1.28 4.55z" fill="#fbb8aa"/><path d="M40.85 111.53s-.33.8.07 1.26 4.49 3 7.25 1-3.75-2.26-3.75-2.26z" fill="#4FD1C5"/><path d="M41.01 109.72a.59.59 0 01.73.19 2.41 2.41 0 002.19.79c.9-.22 1.26-1.25 1.7-1.25s2.82 2 3 2.89-1.08 1.5-2.42 1.59-4.39-.85-5-1.55a2.9 2.9 0 01-.2-2.66z" fill="#fff"/><path d="M33.36 110.63a4.56 4.56 0 00.34 1.84 3.09 3.09 0 001.34 1.24 5.28 5.28 0 003.9.38.73.73 0 00.45-.27.66.66 0 00.08-.39 2.9 2.9 0 00-1-1.83 6.9 6.9 0 01-1.41-1.6c-.59-1.21-.15-4.42-2.42-3.91-1.93.44-1.33 3.21-1.28 4.54z" fill="#fbb8aa"/><path d="M33.05 112.82s-.32.79.07 1.26 4.48 3 7.24 1-3.74-2.31-3.74-2.31z" fill="#4FD1C5"/><path d="M33.21 110.97a.57.57 0 01.73.19 2.38 2.38 0 002.19.78c.89-.21 1.26-1.24 1.69-1.25s2.83 2 3 2.89-1.08 1.51-2.42 1.59-4.39-.84-5-1.55a2.87 2.87 0 01-.19-2.65z" fill="#fff"/><path d="M31.71 77.06s-.42 23.37 1.31 31.16l4.4.54 3-32z" fill="#473f47"/><path d="M45.31 74.53s2.06 12.6-.44 32.84l-4.4.55-3-32z" fill="#473f47"/><path d="M50.45 64.47c-.05.84-.32 1.58-1.06 1.82h-.19c-1.35.27-3.12-.75-4.35-1.65a16.87 16.87 0 01-1.48-1.11v-9l6.56 6.72a10.43 10.43 0 01.52 3.22z" fill="#4FD1C5"/><path d="M44.9 64.65c0 .42.06.85.06 1.27 0 2.33-.54 4.74.15 7a2.52 2.52 0 01.2 1.61 2 2 0 01-1 .94 19.46 19.46 0 01-6.75 1.8c-1.74.24-4.22.76-5.83-.18a2.89 2.89 0 01-1.14-1.89 35.75 35.75 0 01-1.09-7.35c0-.33-.05-.65-.06-1-.14-2.24-.18-4.47-.14-6.71 0-1.62.16-3.37 1.22-4.59a11.58 11.58 0 016.19-3.09 6.64 6.64 0 012-.11 8.44 8.44 0 012.75.93 4.68 4.68 0 012.44 2 13.82 13.82 0 011.15 3.7 13.37 13.37 0 01.15 3.55c-.06.59-.21 1.18-.27 1.77a1.73 1.73 0 00-.03.35z" fill="#4FD1C5"/><path d="M35.39 77.85c-.68.2-2.24-.42-2.76-.51-.31 0-.59-.21-.9-.28-1.54-.39-1.72-4.73-1.87-5.89a82.84 82.84 0 01-1.06-9.38 10 10 0 01.41-3.53 4.09 4.09 0 012.31-2.58c2-.71 2.56 5.53 2.83 6.82.34 1.62.69 3.24 1 4.85.24 1.19.11 2.13 1 3a.49.49 0 00.24.14.48.48 0 00.24-.06 3.51 3.51 0 011.24-.29.78.78 0 01.94.7 2.78 2.78 0 01-1.19 2.93c-.42.27-.9.41-1.33.67-1.59 1-.26 2-.89 3.2a.42.42 0 01-.21.21z" fill="#020202" opacity=".1" style="isolation:isolate"/><path d="M40.14 50.53a1.47 1.47 0 01-1 .47 4.62 4.62 0 01-.91 0h-.17a.2.2 0 00-.13 0 .24.24 0 000 .14 10.18 10.18 0 000 1.83v.33a.6.6 0 010 .35.55.55 0 01-.37.24 2.9 2.9 0 01-.83.15 3.67 3.67 0 01-1.69-.6 17.25 17.25 0 00-.17-3.13 16.63 16.63 0 01-.4-4 2.2 2.2 0 012.55-2.18 5 5 0 012.73.75 1.09 1.09 0 01.41.81c.1.53.19 1.06.24 1.6s.11 1.22.12 1.83a2.08 2.08 0 01-.38 1.41zM56.05 57.7c.06-.09.18-.19.27-.13a.26.26 0 01.08.13.59.59 0 00.54.31h.65a1.83 1.83 0 011.44.78 2.85 2.85 0 01.52 1.59 2 2 0 01-.39 1.44 2.68 2.68 0 01-2.15.57h-.7a.66.66 0 01-.73-.53c-.29-.69-.81-1.39-.45-2.09a12.24 12.24 0 01.92-2.07z" fill="#fbb8aa"/><path d="M39.27 45.41a1.25 1.25 0 01-.91.29c-.9-.06-1.29-.62-2 .25a2 2 0 00-.42 1c0 .08 0 1 .08 1-.26.09-.31-.38-.51-.57s-.66.07-.69.39a1.85 1.85 0 00.29.93 2.87 2.87 0 01.12 1.83c0 .15-.15.32-.29.28s-.23-.28-.33-.4a5 5 0 00-.46-.46c-.5-.44-1.35-.78-1.72-1.3a1.4 1.4 0 01-.23-.95c0-.08.26-.89.39-.81a1.17 1.17 0 01.14-2 2.35 2.35 0 011.19-2.67 4.84 4.84 0 013.08-.38A7.79 7.79 0 0140.26 43a2.56 2.56 0 01.84.83 1.26 1.26 0 01.1 1.15.38.38 0 01-.36-.18.72.72 0 01-.65.77.68.68 0 01-.7-.4.89.89 0 01-.22.24z" fill="#473f47"/><path d="M38.27 51.02h-.17a.2.2 0 00-.13 0 .24.24 0 000 .14 10.18 10.18 0 000 1.83 2.45 2.45 0 01-1.69-2.6 10 10 0 002.07.61z" fill="#dc9e93"/><path d="M55.92 62.12a12.87 12.87 0 01-3.15 3.14 6.3 6.3 0 01-3 1.06 1 1 0 01-.42-.05 1 1 0 01-.57-.39 3.3 3.3 0 01-.76-1.87c-.07-1.8 1.88-2.85 1.88-2.85s4.44-1.41 5-1.18c.29.12.57.75.76 1.29s.26.85.26.85z" fill="#4FD1C5"/><path d="M55.92 62.12a12.87 12.87 0 01-3.15 3.14 6.3 6.3 0 01-3 1.06 1 1 0 01-.42-.05 1.06 1.06 0 01-.19.06c-1.35.27-3.11-.76-4.35-1.66l-1.48-.53-.42-4.19s3.56 3.32 5.11 4.06a4 4 0 002.38.44 2.7 2.7 0 00.63-.19 20.71 20.71 0 004.57-3 7.12 7.12 0 01.32.86z" fill="#020202" opacity=".1" style="isolation:isolate"/><path d="M41.33 66.43l.38-3.79a.62.62 0 01.59-.57l5-.25a.64.64 0 01.66.61.48.48 0 010 .12l-1.31 8.63a.62.62 0 01-.54.53l-4.61.64a.64.64 0 01-.71-.55.57.57 0 010-.13z" fill="#4FD1C5"/><path d="M47.95 62.53l-1.3 8.63a.64.64 0 01-.54.53l-4.58.64a.63.63 0 01-.72-.54.76.76 0 010-.15l.56-5.24.34-3.76a.63.63 0 01.6-.56l5-.25a.63.63 0 01.65.55.37.37 0 01-.01.15z" fill="#fff"/><path d="M55.24 70l-1.3 8.63a.64.64 0 01-.54.53l-4.58.64a.38.38 0 010-.15l.55-5.23.37-3.8a.63.63 0 01.59-.57l4.89-.24a.31.31 0 01.02.19z" transform="translate(-7.29 -7.47)" fill="url(#a)"/><path d="M39.8 66.37a.81.81 0 01.7-.29 2.26 2.26 0 01.42.26.93.93 0 00.4.09 4 4 0 001.64-.23 2.13 2.13 0 01.85-.21 1.26 1.26 0 01.85.6 2.4 2.4 0 01.05 2.59 2.51 2.51 0 01-.85.77 5.29 5.29 0 01-2.42.61h-2.53a1 1 0 01-.58-.07.9.9 0 01-.28-.74 2.5 2.5 0 01.23-1.71c.49-.61 1.03-1.09 1.52-1.67z" fill="#fbb8aa"/><path d="M30.54 55.53s-9.27 12.12-6.34 16.4 15.28-.71 15.28-.71l-1.2-3.54s-8.68 1.1-8.75.13 5.51-6.54 5.51-6.54 1-8.13-4.5-5.74z" fill="#4FD1C5"/><path fill="#fff" d="M56.49 55.48h63.41v46.12H56.49z"/><path fill="#4FD1C5" d="M61.05 94h55.66v2.19H61.05z"/><path fill="#4FD1C5" d="M82.06 77.13h5.4v4.71h-5.4z" opacity=".41"/><path fill="#4FD1C5" d="M76.7 73.47h5.4v8.36h-5.4z"/><path fill="#4FD1C5" d="M71.35 69.61h5.4v12.23h-5.4z" opacity=".5"/><path fill="#4FD1C5" d="M65.99 65.85h5.4v15.99h-5.4z"/><path fill="#4FD1C5" d="M60.63 62.06h5.4v19.78h-5.4z"/><path fill="url(#b)" d="M60.63 62.06h5.4v19.78h-5.4z"/><path d="M107.27 23.24a7.1 7.1 0 01-7.09 7.1H81.97a7.1 7.1 0 110-14.19h2.62a5.63 5.63 0 010-.58 6.52 6.52 0 0113-.23v.19a5.63 5.63 0 010 .58h2.61a7.08 7.08 0 017.09 7.09z" fill="#4FD1C5" opacity=".31" style="isolation:isolate"/><path d="M105.07 22.53a7.1 7.1 0 01-7.09 7.1H79.76a7.1 7.1 0 010-14.19h2.62a5.63 5.63 0 010-.58 6.52 6.52 0 0113 0 5.63 5.63 0 010 .58H98a7.1 7.1 0 017.07 7.09z" fill="#fff"/><path fill="#4FD1C5" d="M88.19 29.66h1.36v6.01h-1.36z"/><path fill="#4FD1C5" d="M105.75 44.61h-1.36v-8.26H72.83v8.26h-1.36v-9.62h34.28v9.62z"/><path fill="#4FD1C5" d="M88.19 35.67h1.36v8.95h-1.36zM102.31 44.61h5.24v5.24h-5.24z"/><path fill="#4FD1C5" d="M86.25 44.61h5.24v5.24h-5.24zM69.64 44.61h5.24v5.24h-5.24zM61.05 85.82h55.66v2.19H61.05z"/><path fill="url(#c)" d="M61.05 85.82h27.14v2.19H61.05z"/><path fill="url(#d)" d="M67.55 93.92h27.14v2.19H67.55z"/><path fill="#4FD1C5" d="M61.05 89.91h55.66v2.19H61.05z"/><path fill="url(#e)" d="M63.13 89.91h35.75v2.19H63.13z"/><path d="M95.85 69.88a6.61 6.61 0 01.58-2.69l-4-2.18a11 11 0 005 14.75 11.49 11.49 0 002.19.8l.81-4.51a6.45 6.45 0 01-4.58-6.17z" fill="#4FD1C5"/><path d="M111.77 75.53a11 11 0 01-12.17 5l.81-4.51a6.44 6.44 0 007.3-2.66z" fill="#4FD1C5" opacity=".5" style="isolation:isolate"/><path d="M120.62 77.35a11 11 0 01-1.56 5.65l-4-2.19a6.46 6.46 0 00-10.87-7 5.31 5.31 0 00-.44.81l-4-2.18a11 11 0 0120.92 4.87z" transform="translate(-7.29 -7.47)" fill="url(#f)"/></svg>
